<mxfile host="app.diagrams.net" agent="Mozilla/5.0 (Windows NT 10.0; Win64; x64) AppleWebKit/537.36 (KHTML, like Gecko) Chrome/135.0.0.0 Safari/537.36" version="26.2.15">
  <diagram id="C5RBs43oDa-KdzZeNtuy" name="Page-1">
    <mxGraphModel grid="1" page="1" gridSize="10" guides="1" tooltips="1" connect="1" arrows="1" fold="1" pageScale="1" pageWidth="827" pageHeight="1169" math="0" shadow="0">
      <root>
        <mxCell id="WIyWlLk6GJQsqaUBKTNV-0" />
        <mxCell id="WIyWlLk6GJQsqaUBKTNV-1" parent="WIyWlLk6GJQsqaUBKTNV-0" />
        <mxCell id="5gOCiCDLjwy8w3L_mOzR-1" value="" style="edgeStyle=orthogonalEdgeStyle;rounded=0;orthogonalLoop=1;jettySize=auto;html=1;" edge="1" parent="WIyWlLk6GJQsqaUBKTNV-1" source="WIyWlLk6GJQsqaUBKTNV-3" target="5gOCiCDLjwy8w3L_mOzR-0">
          <mxGeometry relative="1" as="geometry" />
        </mxCell>
        <mxCell id="WIyWlLk6GJQsqaUBKTNV-3" value="&lt;b&gt;Imported Leads to Smartleads that been opened or been click once&lt;/b&gt;" style="rounded=1;whiteSpace=wrap;html=1;fontSize=12;glass=0;strokeWidth=1;shadow=0;fillColor=#A9C4EB;" vertex="1" parent="WIyWlLk6GJQsqaUBKTNV-1">
          <mxGeometry x="30" y="130" width="190" height="80" as="geometry" />
        </mxCell>
        <mxCell id="5gOCiCDLjwy8w3L_mOzR-0" value="Create Call Task" style="rounded=1;whiteSpace=wrap;html=1;fontStyle=1;fillColor=#A9C4EB;" vertex="1" parent="WIyWlLk6GJQsqaUBKTNV-1">
          <mxGeometry x="45" y="260" width="160" height="60" as="geometry" />
        </mxCell>
        <mxCell id="5gOCiCDLjwy8w3L_mOzR-65" value="" style="edgeStyle=orthogonalEdgeStyle;rounded=0;orthogonalLoop=1;jettySize=auto;html=1;" edge="1" parent="WIyWlLk6GJQsqaUBKTNV-1" source="5gOCiCDLjwy8w3L_mOzR-2" target="5gOCiCDLjwy8w3L_mOzR-4">
          <mxGeometry relative="1" as="geometry" />
        </mxCell>
        <mxCell id="5gOCiCDLjwy8w3L_mOzR-2" value="Schedule Task and Assign Task / Reschedule Task" style="rounded=1;whiteSpace=wrap;html=1;fontStyle=1;fillColor=#A9C4EB;" vertex="1" parent="WIyWlLk6GJQsqaUBKTNV-1">
          <mxGeometry x="214.38" y="680" width="292.25" height="130" as="geometry" />
        </mxCell>
        <mxCell id="5gOCiCDLjwy8w3L_mOzR-64" value="" style="edgeStyle=orthogonalEdgeStyle;rounded=0;orthogonalLoop=1;jettySize=auto;html=1;" edge="1" parent="WIyWlLk6GJQsqaUBKTNV-1" source="5gOCiCDLjwy8w3L_mOzR-4" target="5gOCiCDLjwy8w3L_mOzR-63">
          <mxGeometry relative="1" as="geometry" />
        </mxCell>
        <mxCell id="5gOCiCDLjwy8w3L_mOzR-4" value="Attend Schedule Task" style="rounded=1;whiteSpace=wrap;html=1;fontStyle=1;fillColor=#A9C4EB;" vertex="1" parent="WIyWlLk6GJQsqaUBKTNV-1">
          <mxGeometry x="280.51" y="890" width="160" height="60" as="geometry" />
        </mxCell>
        <mxCell id="5gOCiCDLjwy8w3L_mOzR-79" value="" style="edgeStyle=orthogonalEdgeStyle;rounded=0;orthogonalLoop=1;jettySize=auto;html=1;" edge="1" parent="WIyWlLk6GJQsqaUBKTNV-1" source="5gOCiCDLjwy8w3L_mOzR-13" target="5gOCiCDLjwy8w3L_mOzR-30">
          <mxGeometry relative="1" as="geometry" />
        </mxCell>
        <mxCell id="5gOCiCDLjwy8w3L_mOzR-13" value="&lt;span style=&quot;font-weight: normal;&quot;&gt;Launch Zoiper to Call&lt;br&gt;&lt;/span&gt;" style="rounded=1;whiteSpace=wrap;html=1;fontStyle=1;fillColor=#A9C4EB;" vertex="1" parent="WIyWlLk6GJQsqaUBKTNV-1">
          <mxGeometry x="284.25" y="1760" width="160" height="60" as="geometry" />
        </mxCell>
        <mxCell id="5gOCiCDLjwy8w3L_mOzR-77" style="edgeStyle=orthogonalEdgeStyle;rounded=0;orthogonalLoop=1;jettySize=auto;html=1;entryX=1;entryY=0.5;entryDx=0;entryDy=0;" edge="1" parent="WIyWlLk6GJQsqaUBKTNV-1" source="5gOCiCDLjwy8w3L_mOzR-14" target="5gOCiCDLjwy8w3L_mOzR-13">
          <mxGeometry relative="1" as="geometry">
            <Array as="points">
              <mxPoint x="608.25" y="1790" />
            </Array>
          </mxGeometry>
        </mxCell>
        <mxCell id="5gOCiCDLjwy8w3L_mOzR-14" value="&lt;span style=&quot;font-weight: normal;&quot;&gt;Input Valid Number&lt;/span&gt;" style="rounded=1;whiteSpace=wrap;html=1;fontStyle=1;fillColor=#FFB570;" vertex="1" parent="WIyWlLk6GJQsqaUBKTNV-1">
          <mxGeometry x="528.25" y="1610" width="160" height="60" as="geometry" />
        </mxCell>
        <mxCell id="5gOCiCDLjwy8w3L_mOzR-74" value="" style="edgeStyle=orthogonalEdgeStyle;rounded=0;orthogonalLoop=1;jettySize=auto;html=1;" edge="1" parent="WIyWlLk6GJQsqaUBKTNV-1" source="5gOCiCDLjwy8w3L_mOzR-24" target="5gOCiCDLjwy8w3L_mOzR-13">
          <mxGeometry relative="1" as="geometry" />
        </mxCell>
        <mxCell id="5gOCiCDLjwy8w3L_mOzR-75" value="" style="edgeStyle=orthogonalEdgeStyle;rounded=0;orthogonalLoop=1;jettySize=auto;html=1;" edge="1" parent="WIyWlLk6GJQsqaUBKTNV-1" source="5gOCiCDLjwy8w3L_mOzR-24" target="5gOCiCDLjwy8w3L_mOzR-14">
          <mxGeometry relative="1" as="geometry" />
        </mxCell>
        <mxCell id="5gOCiCDLjwy8w3L_mOzR-24" value="&lt;b&gt;Leads with Valid Number?&lt;/b&gt;" style="rhombus;whiteSpace=wrap;html=1;fillColor=#FFE599;" vertex="1" parent="WIyWlLk6GJQsqaUBKTNV-1">
          <mxGeometry x="284.25" y="1570" width="160" height="140" as="geometry" />
        </mxCell>
        <mxCell id="5gOCiCDLjwy8w3L_mOzR-82" value="" style="edgeStyle=orthogonalEdgeStyle;rounded=0;orthogonalLoop=1;jettySize=auto;html=1;" edge="1" parent="WIyWlLk6GJQsqaUBKTNV-1" source="5gOCiCDLjwy8w3L_mOzR-26" target="5gOCiCDLjwy8w3L_mOzR-81">
          <mxGeometry relative="1" as="geometry" />
        </mxCell>
        <mxCell id="5gOCiCDLjwy8w3L_mOzR-26" value="&lt;b&gt;Record Call Via VOIP&lt;/b&gt;" style="rounded=1;whiteSpace=wrap;html=1;fontStyle=0;fillColor=#A9C4EB;" vertex="1" parent="WIyWlLk6GJQsqaUBKTNV-1">
          <mxGeometry x="284.25" y="1980" width="160" height="60" as="geometry" />
        </mxCell>
        <mxCell id="5gOCiCDLjwy8w3L_mOzR-80" value="" style="edgeStyle=orthogonalEdgeStyle;rounded=0;orthogonalLoop=1;jettySize=auto;html=1;" edge="1" parent="WIyWlLk6GJQsqaUBKTNV-1" source="5gOCiCDLjwy8w3L_mOzR-30" target="5gOCiCDLjwy8w3L_mOzR-26">
          <mxGeometry relative="1" as="geometry" />
        </mxCell>
        <mxCell id="5gOCiCDLjwy8w3L_mOzR-30" value="&lt;span style=&quot;&quot;&gt;&lt;b&gt;Log Call Information&lt;/b&gt;&lt;/span&gt;" style="rounded=1;whiteSpace=wrap;html=1;fontStyle=0;fillColor=#A9C4EB;" vertex="1" parent="WIyWlLk6GJQsqaUBKTNV-1">
          <mxGeometry x="284.25" y="1880" width="160" height="60" as="geometry" />
        </mxCell>
        <mxCell id="5gOCiCDLjwy8w3L_mOzR-33" value="Yes" style="text;html=1;align=center;verticalAlign=middle;resizable=0;points=[];autosize=1;strokeColor=none;fillColor=none;fontStyle=1" vertex="1" parent="WIyWlLk6GJQsqaUBKTNV-1">
          <mxGeometry x="378.25" y="1720" width="40" height="30" as="geometry" />
        </mxCell>
        <mxCell id="5gOCiCDLjwy8w3L_mOzR-34" value="No" style="text;html=1;align=center;verticalAlign=middle;resizable=0;points=[];autosize=1;strokeColor=none;fillColor=none;fontStyle=1" vertex="1" parent="WIyWlLk6GJQsqaUBKTNV-1">
          <mxGeometry x="444.25" y="1590" width="40" height="30" as="geometry" />
        </mxCell>
        <mxCell id="5gOCiCDLjwy8w3L_mOzR-40" value="" style="edgeStyle=orthogonalEdgeStyle;rounded=0;orthogonalLoop=1;jettySize=auto;html=1;" edge="1" parent="WIyWlLk6GJQsqaUBKTNV-1" source="5gOCiCDLjwy8w3L_mOzR-0" target="5gOCiCDLjwy8w3L_mOzR-39">
          <mxGeometry relative="1" as="geometry">
            <mxPoint x="130" y="320" as="sourcePoint" />
            <mxPoint x="130" y="550" as="targetPoint" />
          </mxGeometry>
        </mxCell>
        <mxCell id="5gOCiCDLjwy8w3L_mOzR-43" value="" style="edgeStyle=orthogonalEdgeStyle;rounded=0;orthogonalLoop=1;jettySize=auto;html=1;" edge="1" parent="WIyWlLk6GJQsqaUBKTNV-1" source="5gOCiCDLjwy8w3L_mOzR-39" target="5gOCiCDLjwy8w3L_mOzR-42">
          <mxGeometry relative="1" as="geometry" />
        </mxCell>
        <mxCell id="5gOCiCDLjwy8w3L_mOzR-45" value="" style="edgeStyle=orthogonalEdgeStyle;rounded=0;orthogonalLoop=1;jettySize=auto;html=1;" edge="1" parent="WIyWlLk6GJQsqaUBKTNV-1" source="5gOCiCDLjwy8w3L_mOzR-39">
          <mxGeometry relative="1" as="geometry">
            <mxPoint x="330" y="440" as="targetPoint" />
          </mxGeometry>
        </mxCell>
        <mxCell id="5gOCiCDLjwy8w3L_mOzR-39" value="Opened 3x" style="rhombus;whiteSpace=wrap;html=1;" vertex="1" parent="WIyWlLk6GJQsqaUBKTNV-1">
          <mxGeometry x="50" y="380" width="150" height="120" as="geometry" />
        </mxCell>
        <mxCell id="5gOCiCDLjwy8w3L_mOzR-41" value="Yes" style="text;html=1;align=center;verticalAlign=middle;resizable=0;points=[];autosize=1;strokeColor=none;fillColor=none;fontStyle=1" vertex="1" parent="WIyWlLk6GJQsqaUBKTNV-1">
          <mxGeometry x="135" y="500" width="40" height="30" as="geometry" />
        </mxCell>
        <mxCell id="5gOCiCDLjwy8w3L_mOzR-42" value="Categorized as Urgent" style="rounded=1;whiteSpace=wrap;html=1;fontStyle=1;fillColor=#A9C4EB;" vertex="1" parent="WIyWlLk6GJQsqaUBKTNV-1">
          <mxGeometry x="38.75" y="540" width="172.5" height="70" as="geometry" />
        </mxCell>
        <mxCell id="5gOCiCDLjwy8w3L_mOzR-46" value="No" style="text;html=1;align=center;verticalAlign=middle;resizable=0;points=[];autosize=1;strokeColor=none;fillColor=none;fontStyle=1" vertex="1" parent="WIyWlLk6GJQsqaUBKTNV-1">
          <mxGeometry x="235" y="410" width="40" height="30" as="geometry" />
        </mxCell>
        <mxCell id="5gOCiCDLjwy8w3L_mOzR-49" value="" style="edgeStyle=orthogonalEdgeStyle;rounded=0;orthogonalLoop=1;jettySize=auto;html=1;" edge="1" parent="WIyWlLk6GJQsqaUBKTNV-1" source="5gOCiCDLjwy8w3L_mOzR-47" target="5gOCiCDLjwy8w3L_mOzR-48">
          <mxGeometry relative="1" as="geometry" />
        </mxCell>
        <mxCell id="5gOCiCDLjwy8w3L_mOzR-51" value="" style="edgeStyle=orthogonalEdgeStyle;rounded=0;orthogonalLoop=1;jettySize=auto;html=1;" edge="1" parent="WIyWlLk6GJQsqaUBKTNV-1" source="5gOCiCDLjwy8w3L_mOzR-47" target="5gOCiCDLjwy8w3L_mOzR-50">
          <mxGeometry relative="1" as="geometry" />
        </mxCell>
        <mxCell id="5gOCiCDLjwy8w3L_mOzR-47" value="Opened 2x" style="rhombus;whiteSpace=wrap;html=1;" vertex="1" parent="WIyWlLk6GJQsqaUBKTNV-1">
          <mxGeometry x="290" y="380" width="141" height="120" as="geometry" />
        </mxCell>
        <mxCell id="5gOCiCDLjwy8w3L_mOzR-62" value="" style="edgeStyle=orthogonalEdgeStyle;rounded=0;orthogonalLoop=1;jettySize=auto;html=1;" edge="1" parent="WIyWlLk6GJQsqaUBKTNV-1" source="5gOCiCDLjwy8w3L_mOzR-48" target="5gOCiCDLjwy8w3L_mOzR-2">
          <mxGeometry relative="1" as="geometry" />
        </mxCell>
        <mxCell id="5gOCiCDLjwy8w3L_mOzR-48" value="Categorized as High" style="rounded=1;whiteSpace=wrap;html=1;fontStyle=1;fillColor=#A9C4EB;" vertex="1" parent="WIyWlLk6GJQsqaUBKTNV-1">
          <mxGeometry x="274.25" y="540" width="172.5" height="70" as="geometry" />
        </mxCell>
        <mxCell id="5gOCiCDLjwy8w3L_mOzR-54" value="" style="edgeStyle=orthogonalEdgeStyle;rounded=0;orthogonalLoop=1;jettySize=auto;html=1;" edge="1" parent="WIyWlLk6GJQsqaUBKTNV-1" source="5gOCiCDLjwy8w3L_mOzR-50" target="5gOCiCDLjwy8w3L_mOzR-53">
          <mxGeometry relative="1" as="geometry" />
        </mxCell>
        <mxCell id="5gOCiCDLjwy8w3L_mOzR-86" value="" style="edgeStyle=orthogonalEdgeStyle;rounded=0;orthogonalLoop=1;jettySize=auto;html=1;" edge="1" parent="WIyWlLk6GJQsqaUBKTNV-1" source="5gOCiCDLjwy8w3L_mOzR-50" target="5gOCiCDLjwy8w3L_mOzR-57">
          <mxGeometry relative="1" as="geometry" />
        </mxCell>
        <mxCell id="5gOCiCDLjwy8w3L_mOzR-50" value="Opened Once" style="rhombus;whiteSpace=wrap;html=1;" vertex="1" parent="WIyWlLk6GJQsqaUBKTNV-1">
          <mxGeometry x="520" y="380" width="135" height="120" as="geometry" />
        </mxCell>
        <mxCell id="5gOCiCDLjwy8w3L_mOzR-52" value="No" style="text;html=1;align=center;verticalAlign=middle;resizable=0;points=[];autosize=1;strokeColor=none;fillColor=none;fontStyle=1" vertex="1" parent="WIyWlLk6GJQsqaUBKTNV-1">
          <mxGeometry x="466.25" y="410" width="40" height="30" as="geometry" />
        </mxCell>
        <mxCell id="5gOCiCDLjwy8w3L_mOzR-61" style="edgeStyle=orthogonalEdgeStyle;rounded=0;orthogonalLoop=1;jettySize=auto;html=1;entryX=1;entryY=0.5;entryDx=0;entryDy=0;" edge="1" parent="WIyWlLk6GJQsqaUBKTNV-1" source="5gOCiCDLjwy8w3L_mOzR-53" target="5gOCiCDLjwy8w3L_mOzR-2">
          <mxGeometry relative="1" as="geometry">
            <Array as="points">
              <mxPoint x="685" y="745" />
            </Array>
          </mxGeometry>
        </mxCell>
        <mxCell id="5gOCiCDLjwy8w3L_mOzR-53" value="Categorized as Low" style="rounded=1;whiteSpace=wrap;html=1;fontStyle=1;fillColor=#A9C4EB;" vertex="1" parent="WIyWlLk6GJQsqaUBKTNV-1">
          <mxGeometry x="506.25" y="540" width="172.5" height="70" as="geometry" />
        </mxCell>
        <mxCell id="5gOCiCDLjwy8w3L_mOzR-57" value="Exit" style="ellipse;whiteSpace=wrap;html=1;fillColor=#EA6B66;" vertex="1" parent="WIyWlLk6GJQsqaUBKTNV-1">
          <mxGeometry x="700" y="400" width="120" height="80" as="geometry" />
        </mxCell>
        <mxCell id="5gOCiCDLjwy8w3L_mOzR-59" value="" style="edgeStyle=orthogonalEdgeStyle;rounded=0;orthogonalLoop=1;jettySize=auto;html=1;" edge="1" parent="WIyWlLk6GJQsqaUBKTNV-1" source="5gOCiCDLjwy8w3L_mOzR-58" target="WIyWlLk6GJQsqaUBKTNV-3">
          <mxGeometry relative="1" as="geometry" />
        </mxCell>
        <mxCell id="5gOCiCDLjwy8w3L_mOzR-58" value="Start" style="ellipse;whiteSpace=wrap;html=1;fillColor=#97D077;" vertex="1" parent="WIyWlLk6GJQsqaUBKTNV-1">
          <mxGeometry x="65" y="20" width="120" height="80" as="geometry" />
        </mxCell>
        <mxCell id="5gOCiCDLjwy8w3L_mOzR-60" style="edgeStyle=orthogonalEdgeStyle;rounded=0;orthogonalLoop=1;jettySize=auto;html=1;entryX=0;entryY=0.562;entryDx=0;entryDy=0;entryPerimeter=0;" edge="1" parent="WIyWlLk6GJQsqaUBKTNV-1" source="5gOCiCDLjwy8w3L_mOzR-42" target="5gOCiCDLjwy8w3L_mOzR-2">
          <mxGeometry relative="1" as="geometry">
            <Array as="points">
              <mxPoint x="130" y="753" />
            </Array>
          </mxGeometry>
        </mxCell>
        <mxCell id="5gOCiCDLjwy8w3L_mOzR-63" value="Exit" style="ellipse;whiteSpace=wrap;html=1;fillColor=#EA6B66;" vertex="1" parent="WIyWlLk6GJQsqaUBKTNV-1">
          <mxGeometry x="300.51" y="1020" width="120" height="80" as="geometry" />
        </mxCell>
        <mxCell id="5gOCiCDLjwy8w3L_mOzR-66" value="&lt;font style=&quot;font-size: 36px;&quot;&gt;CREATING CALL TASK&lt;/font&gt;" style="text;html=1;align=center;verticalAlign=middle;resizable=0;points=[];autosize=1;strokeColor=none;fillColor=none;" vertex="1" parent="WIyWlLk6GJQsqaUBKTNV-1">
          <mxGeometry x="275" y="180" width="410" height="60" as="geometry" />
        </mxCell>
        <mxCell id="5gOCiCDLjwy8w3L_mOzR-67" value="&lt;span style=&quot;font-size: 36px;&quot;&gt;ATTENDING/INITIATING CALL TASK&lt;/span&gt;" style="text;html=1;align=center;verticalAlign=middle;resizable=0;points=[];autosize=1;strokeColor=none;fillColor=none;" vertex="1" parent="WIyWlLk6GJQsqaUBKTNV-1">
          <mxGeometry x="125" y="1180" width="620" height="60" as="geometry" />
        </mxCell>
        <mxCell id="5gOCiCDLjwy8w3L_mOzR-70" value="" style="edgeStyle=orthogonalEdgeStyle;rounded=0;orthogonalLoop=1;jettySize=auto;html=1;" edge="1" parent="WIyWlLk6GJQsqaUBKTNV-1" source="5gOCiCDLjwy8w3L_mOzR-68" target="5gOCiCDLjwy8w3L_mOzR-69">
          <mxGeometry relative="1" as="geometry" />
        </mxCell>
        <mxCell id="5gOCiCDLjwy8w3L_mOzR-68" value="Start" style="ellipse;whiteSpace=wrap;html=1;fillColor=#97D077;" vertex="1" parent="WIyWlLk6GJQsqaUBKTNV-1">
          <mxGeometry x="304.25" y="1250" width="120" height="80" as="geometry" />
        </mxCell>
        <mxCell id="5gOCiCDLjwy8w3L_mOzR-72" value="" style="edgeStyle=orthogonalEdgeStyle;rounded=0;orthogonalLoop=1;jettySize=auto;html=1;" edge="1" parent="WIyWlLk6GJQsqaUBKTNV-1" source="5gOCiCDLjwy8w3L_mOzR-69" target="5gOCiCDLjwy8w3L_mOzR-71">
          <mxGeometry relative="1" as="geometry" />
        </mxCell>
        <mxCell id="5gOCiCDLjwy8w3L_mOzR-69" value="&lt;span style=&quot;font-weight: normal;&quot;&gt;Selecting Assigned Call Task&lt;br&gt;&lt;/span&gt;" style="rounded=1;whiteSpace=wrap;html=1;fontStyle=1;fillColor=#A9C4EB;" vertex="1" parent="WIyWlLk6GJQsqaUBKTNV-1">
          <mxGeometry x="284.25" y="1360" width="160" height="60" as="geometry" />
        </mxCell>
        <mxCell id="5gOCiCDLjwy8w3L_mOzR-73" value="" style="edgeStyle=orthogonalEdgeStyle;rounded=0;orthogonalLoop=1;jettySize=auto;html=1;" edge="1" parent="WIyWlLk6GJQsqaUBKTNV-1" source="5gOCiCDLjwy8w3L_mOzR-71" target="5gOCiCDLjwy8w3L_mOzR-24">
          <mxGeometry relative="1" as="geometry" />
        </mxCell>
        <mxCell id="5gOCiCDLjwy8w3L_mOzR-71" value="&lt;span style=&quot;font-weight: normal;&quot;&gt;Initiating Call&amp;nbsp;&lt;br&gt;&lt;/span&gt;" style="rounded=1;whiteSpace=wrap;html=1;fontStyle=1;fillColor=#A9C4EB;" vertex="1" parent="WIyWlLk6GJQsqaUBKTNV-1">
          <mxGeometry x="284.25" y="1470" width="160" height="60" as="geometry" />
        </mxCell>
        <mxCell id="5gOCiCDLjwy8w3L_mOzR-84" value="" style="edgeStyle=orthogonalEdgeStyle;rounded=0;orthogonalLoop=1;jettySize=auto;html=1;" edge="1" parent="WIyWlLk6GJQsqaUBKTNV-1" source="5gOCiCDLjwy8w3L_mOzR-81" target="5gOCiCDLjwy8w3L_mOzR-83">
          <mxGeometry relative="1" as="geometry" />
        </mxCell>
        <mxCell id="5gOCiCDLjwy8w3L_mOzR-81" value="&lt;b&gt;Save Recorded Call to Azure File Storage&lt;/b&gt;" style="rounded=1;whiteSpace=wrap;html=1;fontStyle=0;fillColor=#A9C4EB;" vertex="1" parent="WIyWlLk6GJQsqaUBKTNV-1">
          <mxGeometry x="284.25" y="2080" width="160" height="60" as="geometry" />
        </mxCell>
        <mxCell id="5gOCiCDLjwy8w3L_mOzR-83" value="Exit" style="ellipse;whiteSpace=wrap;html=1;fillColor=#EA6B66;" vertex="1" parent="WIyWlLk6GJQsqaUBKTNV-1">
          <mxGeometry x="304.25" y="2170" width="120" height="80" as="geometry" />
        </mxCell>
        <mxCell id="5gOCiCDLjwy8w3L_mOzR-87" value="No" style="text;html=1;align=center;verticalAlign=middle;resizable=0;points=[];autosize=1;strokeColor=none;fillColor=none;fontStyle=1" vertex="1" parent="WIyWlLk6GJQsqaUBKTNV-1">
          <mxGeometry x="655" y="410" width="40" height="30" as="geometry" />
        </mxCell>
      </root>
    </mxGraphModel>
  </diagram>
</mxfile>
